<?xml version="1.0" encoding="UTF-8" standalone="no"?>
<!DOCTYPE svg PUBLIC "-//W3C//DTD SVG 1.1//EN"
 "http://www.w3.org/Graphics/SVG/1.1/DTD/svg11.dtd">
<!-- Generated by graphviz version 2.40.1 (20161225.0304)
 -->
<!-- Title: dependencies Pages: 1 -->
<svg width="504pt" height="284pt"
 viewBox="0.00 0.00 504.00 284.00" xmlns="http://www.w3.org/2000/svg" xmlns:xlink="http://www.w3.org/1999/xlink">
<g id="graph0" class="graph" transform="scale(1 1) rotate(0) translate(4 280)">
<title>dependencies</title>
<polygon fill="#ffffff" stroke="transparent" points="-4,4 -4,-280 500,-280 500,4 -4,4"/>
<text text-anchor="start" x="227.0091" y="-42.4" font-family="sans-serif" font-weight="bold" font-size="14.00" fill="#000000">Legend</text>
<polygon fill="#ffffb3" stroke="transparent" points="14,-10 14,-30 34,-30 34,-10 14,-10"/>
<text text-anchor="start" x="37.629" y="-15.4" font-family="sans-serif" font-size="14.00" fill="#000000"> &#160;Declarations</text>
<polygon fill="#8dd3c7" stroke="transparent" points="127,-10 127,-30 147,-30 147,-10 127,-10"/>
<text text-anchor="start" x="150.7251" y="-15.4" font-family="sans-serif" font-size="14.00" fill="#000000"> &#160;Module</text>
<polygon fill="#80b1d3" stroke="transparent" points="213,-10 213,-30 233,-30 233,-10 213,-10"/>
<text text-anchor="start" x="236.7812" y="-15.4" font-family="sans-serif" font-size="14.00" fill="#000000"> &#160;Bootstrap</text>
<polygon fill="#fdb462" stroke="transparent" points="310,-10 310,-30 330,-30 330,-10 310,-10"/>
<text text-anchor="start" x="333.6732" y="-15.4" font-family="sans-serif" font-size="14.00" fill="#000000"> &#160;Providers</text>
<polygon fill="#fb8072" stroke="transparent" points="406,-10 406,-30 426,-30 426,-10 406,-10"/>
<text text-anchor="start" x="429.7258" y="-15.4" font-family="sans-serif" font-size="14.00" fill="#000000"> &#160;Exports</text>
<g id="clust1" class="cluster">
<title>cluster_SampleModule</title>
<polygon fill="none" stroke="#000000" stroke-dasharray="1,5" points="51,-70 51,-268 445,-268 445,-70 51,-70"/>
</g>
<g id="clust3" class="cluster">
<title>cluster_SampleModule_imports</title>
<polygon fill="none" stroke="#000000" points="164,-78 164,-130 292,-130 292,-78 164,-78"/>
</g>
<g id="clust4" class="cluster">
<title>cluster_SampleModule_exports</title>
<polygon fill="none" stroke="#000000" points="59,-208 59,-260 437,-260 437,-208 59,-208"/>
</g>
<!-- CommonModule -->
<g id="node1" class="node">
<title>CommonModule</title>
<polygon fill="#8dd3c7" stroke="#000000" points="283.6681,-122 280.6681,-126 259.6681,-126 256.6681,-122 172.3319,-122 172.3319,-86 283.6681,-86 283.6681,-122"/>
<text text-anchor="middle" x="228" y="-99.8" font-family="Times,serif" font-size="14.00" fill="#000000">CommonModule</text>
</g>
<!-- SampleModule -->
<g id="node2" class="node">
<title>SampleModule</title>
<polygon fill="#8dd3c7" stroke="#000000" points="278.5438,-187 275.5438,-191 254.5438,-191 251.5438,-187 177.4562,-187 177.4562,-151 278.5438,-151 278.5438,-187"/>
<text text-anchor="middle" x="228" y="-164.8" font-family="Times,serif" font-size="14.00" fill="#000000">SampleModule</text>
</g>
<!-- CommonModule&#45;&gt;SampleModule -->
<g id="edge1" class="edge">
<title>CommonModule&#45;&gt;SampleModule</title>
<path fill="none" stroke="#000000" d="M228,-122.1061C228,-122.1061 228,-140.991 228,-140.991"/>
<polygon fill="#000000" stroke="#000000" points="224.5001,-140.9909 228,-150.991 231.5001,-140.991 224.5001,-140.9909"/>
</g>
<!-- SampleComponent  -->
<g id="node3" class="node">
<title>SampleComponent </title>
<polygon fill="#fb8072" stroke="#000000" points="429.3255,-252 302.6745,-252 302.6745,-216 429.3255,-216 429.3255,-252"/>
<text text-anchor="middle" x="366" y="-229.8" font-family="Times,serif" font-size="14.00" fill="#000000">SampleComponent </text>
</g>
<!-- SampleModule&#45;&gt;SampleComponent  -->
<g id="edge2" class="edge">
<title>SampleModule&#45;&gt;SampleComponent </title>
<path fill="none" stroke="#000000" stroke-dasharray="5,2" d="M278.6025,-169C317.9876,-169 366,-169 366,-169 366,-169 366,-205.8939 366,-205.8939"/>
<polygon fill="#000000" stroke="#000000" points="362.5001,-205.8938 366,-215.8939 369.5001,-205.8939 362.5001,-205.8938"/>
</g>
<!-- SampleDirective  -->
<g id="node4" class="node">
<title>SampleDirective </title>
<polygon fill="#fb8072" stroke="#000000" points="284.5766,-252 171.4234,-252 171.4234,-216 284.5766,-216 284.5766,-252"/>
<text text-anchor="middle" x="228" y="-229.8" font-family="Times,serif" font-size="14.00" fill="#000000">SampleDirective </text>
</g>
<!-- SampleModule&#45;&gt;SampleDirective  -->
<g id="edge3" class="edge">
<title>SampleModule&#45;&gt;SampleDirective </title>
<path fill="none" stroke="#000000" stroke-dasharray="5,2" d="M228,-187.1061C228,-187.1061 228,-205.991 228,-205.991"/>
<polygon fill="#000000" stroke="#000000" points="224.5001,-205.9909 228,-215.991 231.5001,-205.991 224.5001,-205.9909"/>
</g>
<!-- SamplePipe  -->
<g id="node5" class="node">
<title>SamplePipe </title>
<polygon fill="#fb8072" stroke="#000000" points="153.3816,-252 66.6184,-252 66.6184,-216 153.3816,-216 153.3816,-252"/>
<text text-anchor="middle" x="110" y="-229.8" font-family="Times,serif" font-size="14.00" fill="#000000">SamplePipe </text>
</g>
<!-- SampleModule&#45;&gt;SamplePipe  -->
<g id="edge4" class="edge">
<title>SampleModule&#45;&gt;SamplePipe </title>
<path fill="none" stroke="#000000" stroke-dasharray="5,2" d="M177.2726,-169C145.2905,-169 110,-169 110,-169 110,-169 110,-205.8939 110,-205.8939"/>
<polygon fill="#000000" stroke="#000000" points="106.5001,-205.8938 110,-215.8939 113.5001,-205.8939 106.5001,-205.8938"/>
</g>
</g>
</svg>
